<svg width="41" height="37" viewBox="0 0 41 37" fill="none" xmlns="http://www.w3.org/2000/svg">
<g clipPath="url(#clip0)">
<path d="M31.882 21.1275C31.3921 23.8866 27.5432 26.8338 24.534 26.8965C24.324 26.8965 24.1141 26.9592 23.9741 27.0847C23.8342 27.1474 23.6942 27.2101 23.6242 27.3982C22.5745 29.154 23.1343 30.5336 24.8839 31.6623C26.9133 32.9791 30.1325 31.6623 31.742 30.4708C35.8009 27.4609 39.9298 22.2563 39.7199 17.3024C40.4197 13.9788 40.2797 10.4046 39.23 7.45733C38.5302 5.57612 36.5008 4.63551 34.4013 4.5101C32.3019 4.38458 27.963 3.82032 26.0736 4.94895C24.1841 6.07778 24.0441 8.27253 23.8342 10.1536C23.6242 12.223 22.9944 16.1109 24.9539 17.7413C26.9133 19.309 32.5118 17.6159 31.882 21.1275Z" fill="#FBB615"/>
<path d="M8.78823 21.1275C8.29836 23.8866 4.4495 26.8338 1.44019 26.8965C1.23025 26.8965 1.02031 26.9592 0.880342 27.0847C0.740267 27.1474 0.600416 27.2101 0.530321 27.3982C-0.519398 29.154 0.040451 30.5336 1.78998 31.6623C3.81944 32.9791 7.03858 31.6623 8.64827 30.4708C12.7072 27.4609 16.8361 22.2562 16.6261 17.3024C17.326 13.9788 17.186 10.4046 16.1364 7.45733C15.4366 5.57612 13.4071 4.63551 11.3076 4.5101C9.20812 4.38458 4.86928 3.82032 2.97978 4.94895C1.0904 6.07778 0.950325 8.27253 0.740381 10.1536C0.530436 12.223 -0.0993958 16.1109 1.86008 17.7413C3.81956 19.309 9.48804 17.6159 8.78823 21.1275Z" fill="#FBB615"/>
</g>
<defs>
<clipPath id="clip0">
<rect width="40.1509" height="35.9775" fill="white" transform="translate(40.1523 36.2233) rotate(180)"/>
</clipPath>
</defs>
</svg>
