<svg width="41" height="37" viewBox="0 0 41 37" fill="none" xmlns="http://www.w3.org/2000/svg">
<g clip-path="url(#clip0)">
<path d="M8.27035 16.0507C8.76022 13.2916 12.6092 10.3444 15.6184 10.2817C15.8283 10.2817 16.0383 10.219 16.1782 10.0936C16.3182 10.0309 16.4582 9.96815 16.5281 9.78002C17.5779 8.02423 17.018 6.64467 15.2685 5.51594C13.239 4.19909 10.0199 5.51594 8.41031 6.70738C4.3514 9.71732 0.222504 14.9219 0.432448 19.8759C-0.267365 23.1994 -0.127402 26.7737 0.922317 29.7209C1.62213 31.6021 3.65159 32.5427 5.75102 32.6681C7.85046 32.7936 12.1893 33.3579 14.0788 32.2293C15.9683 31.1004 16.1082 28.9057 16.3182 27.0246C16.5281 24.9552 17.158 21.0673 15.1985 19.4369C13.239 17.8692 7.64052 19.5623 8.27035 16.0507Z" fill="#FBB615"/>
<path d="M31.3641 16.0507C31.854 13.2916 35.7028 10.3444 38.7122 10.2817C38.9221 10.2817 39.132 10.219 39.272 10.0936C39.4121 10.0309 39.5519 9.96815 39.622 9.78002C40.6717 8.02423 40.1119 6.64467 38.3624 5.51594C36.3329 4.19909 33.1138 5.51594 31.5041 6.70738C27.4452 9.71732 23.3163 14.922 23.5262 19.8759C22.8264 23.1994 22.9664 26.7737 24.016 29.7209C24.7158 31.6021 26.7452 32.5427 28.8448 32.6681C30.9442 32.7936 35.2831 33.3579 37.1726 32.2293C39.0619 31.1004 39.202 28.9057 39.412 27.0246C39.6219 24.9552 40.2517 21.0673 38.2923 19.4369C36.3328 17.8692 30.6643 19.5623 31.3641 16.0507Z" fill="#FBB615"/>
</g>
<defs>
<clipPath id="clip0">
<rect width="40.1509" height="35.9775" fill="white" transform="translate(0 0.954956)"/>
</clipPath>
</defs>
</svg>
