<svg width="21" height="31" viewBox="0 0 21 31" fill="none" xmlns="http://www.w3.org/2000/svg">
<path d="M0.244141 4.43474C0.244141 3.4505 0.604563 2.50656 1.24612 1.81059C1.88767 1.11462 2.75781 0.723633 3.66511 0.723633L17.349 0.723633C18.2563 0.723633 19.1264 1.11462 19.768 1.81059C20.4095 2.50656 20.7699 3.4505 20.7699 4.43474V29.4847C20.7699 29.6526 20.7278 29.8172 20.6483 29.9612C20.5688 30.1051 20.4548 30.223 20.3184 30.3022C20.182 30.3814 20.0284 30.419 19.8738 30.411C19.7193 30.403 19.5697 30.3496 19.4409 30.2566L10.507 25.0333L1.57319 30.2566C1.4444 30.3496 1.29477 30.403 1.14025 30.411C0.985725 30.419 0.83209 30.3814 0.695707 30.3022C0.559324 30.223 0.445301 30.1051 0.36578 29.9612C0.28626 29.8172 0.244221 29.6526 0.244141 29.4847V4.43474ZM3.66511 2.57919C3.21146 2.57919 2.77639 2.77468 2.45561 3.12267C2.13484 3.47065 1.95462 3.94262 1.95462 4.43474V27.7516L10.0332 23.1462C10.1736 23.0448 10.3384 22.9908 10.507 22.9908C10.6756 22.9908 10.8405 23.0448 10.9808 23.1462L19.0595 27.7516V4.43474C19.0595 3.94262 18.8792 3.47065 18.5585 3.12267C18.2377 2.77468 17.8026 2.57919 17.349 2.57919H3.66511Z" fill="#FBB615"/>
<path d="M10.5067 8.14575C10.7335 8.14575 10.951 8.2435 11.1114 8.41749C11.2718 8.59148 11.3619 8.82747 11.3619 9.07353V11.8569H13.9276C14.1545 11.8569 14.372 11.9546 14.5324 12.1286C14.6928 12.3026 14.7829 12.5386 14.7829 12.7846C14.7829 13.0307 14.6928 13.2667 14.5324 13.4407C14.372 13.6147 14.1545 13.7124 13.9276 13.7124H11.3619V16.4958C11.3619 16.7418 11.2718 16.9778 11.1114 17.1518C10.951 17.3258 10.7335 17.4235 10.5067 17.4235C10.2799 17.4235 10.0623 17.3258 9.90193 17.1518C9.74154 16.9778 9.65144 16.7418 9.65144 16.4958V13.7124H7.08571C6.85889 13.7124 6.64135 13.6147 6.48096 13.4407C6.32057 13.2667 6.23047 13.0307 6.23047 12.7846C6.23047 12.5386 6.32057 12.3026 6.48096 12.1286C6.64135 11.9546 6.85889 11.8569 7.08571 11.8569H9.65144V9.07353C9.65144 8.82747 9.74154 8.59148 9.90193 8.41749C10.0623 8.2435 10.2799 8.14575 10.5067 8.14575Z" fill="#FBB615"/>
</svg>
