<svg width="13" height="18" viewBox="0 0 13 18" fill="none" xmlns="http://www.w3.org/2000/svg">
<path d="M11.6854 2.10014H10.4461V1.00806H10.0099V2.10014H8.88263V1.00806H8.44646V2.10014H4.54733V1.00806H4.1112V2.10014H2.98386V1.00806H2.54773V2.10014H1.31317C1.24321 2.09994 1.1739 2.11507 1.1092 2.14468C1.04451 2.17427 0.985688 2.21776 0.936109 2.27265C0.886531 2.32754 0.847164 2.39276 0.820257 2.46459C0.793351 2.5364 0.779432 2.61341 0.779298 2.69122V12.7983C0.779182 12.8763 0.792911 12.9536 0.819699 13.0257C0.846488 13.0978 0.885808 13.1633 0.935406 13.2184C0.985003 13.2736 1.0439 13.3173 1.10873 13.3471C1.17355 13.3769 1.24302 13.3922 1.31317 13.3921H11.6854C11.7556 13.3922 11.825 13.3769 11.8899 13.3471C11.9547 13.3173 12.0136 13.2736 12.0632 13.2184C12.1128 13.1633 12.1521 13.0978 12.1789 13.0257C12.2057 12.9536 12.2194 12.8763 12.2193 12.7983V2.69122C12.2192 2.61341 12.2052 2.5364 12.1783 2.46459C12.1514 2.39276 12.1121 2.32754 12.0625 2.27265C12.0129 2.21776 11.9541 2.17427 11.8894 2.14468C11.8247 2.11507 11.7554 2.09994 11.6854 2.10014ZM11.7903 12.7983C11.7901 12.8292 11.7789 12.8587 11.7593 12.8805C11.7397 12.9023 11.7132 12.9147 11.6854 12.9149H1.31317C1.28543 12.9147 1.25889 12.9023 1.23928 12.8805C1.21966 12.8587 1.20854 12.8292 1.2083 12.7983V4.89659H11.7903V12.7983ZM11.7903 4.40886H1.2083V2.69122C1.20864 2.66066 1.21987 2.63148 1.23954 2.61011C1.2592 2.58874 1.28568 2.57694 1.31317 2.57727H2.54773V3.47053H2.98386V2.57727H4.1112V3.47053H4.54733V2.57727H8.44646V3.47053H8.88263V2.57727H10.0099V3.47053H10.4461V2.57727H11.6854C11.7129 2.57694 11.7394 2.58874 11.7591 2.61011C11.7787 2.63148 11.79 2.66066 11.7903 2.69122V4.40886Z" fill="#4A4A4A" fill-opacity="0.8"/>
<path d="M10.4527 6.8728H8.89453V7.35866H10.4527V6.8728Z" fill="#4A4A4A" fill-opacity="0.8"/>
<path d="M7.40977 6.85156H5.85156V7.33743H7.40977V6.85156Z" fill="#4A4A4A" fill-opacity="0.8"/>
<path d="M10.4527 8.46338H8.89453V8.94924H10.4527V8.46338Z" fill="#4A4A4A" fill-opacity="0.8"/>
<path d="M7.40977 8.44189H5.85156V8.92776H7.40977V8.44189Z" fill="#4A4A4A" fill-opacity="0.8"/>
<path d="M10.4527 10.0537H8.89453V10.5396H10.4527V10.0537Z" fill="#4A4A4A" fill-opacity="0.8"/>
<path d="M7.40977 10.0322H5.85156V10.5181H7.40977V10.0322Z" fill="#4A4A4A" fill-opacity="0.8"/>
<path d="M4.3375 10.0569H2.7793V10.5427H4.3375V10.0569Z" fill="#4A4A4A" fill-opacity="0.8"/>
</svg>