<svg width="69" height="69" viewBox="0 0 69 69" fill="none" xmlns="http://www.w3.org/2000/svg">
<path fill-rule="evenodd" clip-rule="evenodd" d="M34.5 0.125C15.5156 0.125 0.125 15.5156 0.125 34.5C0.125 53.4844 15.5156 68.875 34.5 68.875C53.4844 68.875 68.875 53.4844 68.875 34.5C68.875 15.5156 53.4844 0.125 34.5 0.125ZM37.625 47C37.625 47.8288 37.2958 48.6237 36.7097 49.2097C36.1237 49.7958 35.3288 50.125 34.5 50.125C33.6712 50.125 32.8763 49.7958 32.2903 49.2097C31.7042 48.6237 31.375 47.8288 31.375 47V37.625H22C21.1712 37.625 20.3763 37.2958 19.7903 36.7097C19.2042 36.1237 18.875 35.3288 18.875 34.5C18.875 33.6712 19.2042 32.8763 19.7903 32.2903C20.3763 31.7042 21.1712 31.375 22 31.375H31.375V22C31.375 21.1712 31.7042 20.3763 32.2903 19.7903C32.8763 19.2042 33.6712 18.875 34.5 18.875C35.3288 18.875 36.1237 19.2042 36.7097 19.7903C37.2958 20.3763 37.625 21.1712 37.625 22V31.375H47C47.8288 31.375 48.6237 31.7042 49.2097 32.2903C49.7958 32.8763 50.125 33.6712 50.125 34.5C50.125 35.3288 49.7958 36.1237 49.2097 36.7097C48.6237 37.2958 47.8288 37.625 47 37.625H37.625V47Z" fill="#838282"/>
</svg>
