<svg width="19" height="20" viewBox="0 0 19 20" fill="none" xmlns="http://www.w3.org/2000/svg">
<path d="M2.375 16.5V2.5H4.125V8.625L6.3125 7.3125L8.5 8.625V2.5H12.875V8.695C13.1637 8.65125 13.4525 8.625 13.75 8.625C14.0475 8.625 14.3363 8.65125 14.625 8.695V2.5C14.625 1.5375 13.8375 0.75 12.875 0.75H2.375C1.4125 0.75 0.625 1.5375 0.625 2.5V16.5C0.625 17.4625 1.4125 18.25 2.375 18.25H8.7275C8.36 17.725 8.07125 17.13 7.87875 16.5H2.375ZM13.75 10.375C11.335 10.375 9.375 12.335 9.375 14.75C9.375 17.165 11.335 19.125 13.75 19.125C16.165 19.125 18.125 17.165 18.125 14.75C18.125 12.335 16.165 10.375 13.75 10.375ZM12.6562 16.9375V12.5625L16.1562 14.75L12.6562 16.9375Z" fill="#777777"/>
</svg>