<svg width="11" height="15" viewBox="0 0 11 15" fill="none" xmlns="http://www.w3.org/2000/svg">
<path d="M10.4695 1.23236H7.56131L7.3335 0.702237C7.28524 0.588903 7.21091 0.493569 7.11886 0.42696C7.0268 0.360351 6.92069 0.325109 6.81245 0.3252H4.04239C3.9344 0.324715 3.82847 0.359825 3.73674 0.426508C3.64502 0.493191 3.57121 0.58875 3.52376 0.702237L3.29596 1.23236H0.387759C0.284919 1.23236 0.186291 1.28014 0.113572 1.36521C0.0408531 1.45027 0 1.56564 0 1.68594L0 2.59309C0 2.71339 0.0408531 2.82876 0.113572 2.91382C0.186291 2.99888 0.284919 3.04667 0.387759 3.04667H10.4695C10.5723 3.04667 10.671 2.99888 10.7437 2.91382C10.8164 2.82876 10.8573 2.71339 10.8573 2.59309V1.68594C10.8573 1.56564 10.8164 1.45027 10.7437 1.36521C10.671 1.28014 10.5723 1.23236 10.4695 1.23236ZM1.2893 13.564C1.30779 13.9095 1.43814 14.2337 1.65381 14.4707C1.86947 14.7077 2.15425 14.8397 2.45016 14.8397H8.40711C8.70302 14.8397 8.98779 14.7077 9.20346 14.4707C9.41912 14.2337 9.54947 13.9095 9.56796 13.564L10.0817 3.95383H0.775519L1.2893 13.564Z" fill="#FBB615"/>
</svg>