<svg width="13" height="15" viewBox="0 0 13 15" fill="none" xmlns="http://www.w3.org/2000/svg">
<path fill-rule="evenodd" clip-rule="evenodd" d="M1.54232 13.1667H11.459C11.6468 13.1667 11.827 13.2414 11.9599 13.3742C12.0927 13.5071 12.1673 13.6872 12.1673 13.8751C12.1673 14.0629 12.0927 14.2431 11.9599 14.3759C11.827 14.5088 11.6468 14.5834 11.459 14.5834H1.54232C1.35446 14.5834 1.17429 14.5088 1.04145 14.3759C0.908612 14.2431 0.833984 14.0629 0.833984 13.8751C0.833984 13.6872 0.908612 13.5071 1.04145 13.3742C1.17429 13.2414 1.35446 13.1667 1.54232 13.1667ZM0.833984 9.62508L7.91732 2.54175L10.0423 4.66675L2.95898 11.7501H0.833984V9.62508ZM8.62565 1.83341L10.0423 0.416748L12.1673 2.54175L10.7499 3.95912L8.62565 1.83341Z" fill="#FBB615"/>
</svg>