<svg width="18" height="11" viewBox="0 0 18 11" fill="none" xmlns="http://www.w3.org/2000/svg">
<path d="M2.30811 6.29863C2.2331 6.5038 2.08121 6.67158 1.88469 6.76632C1.68818 6.86106 1.46254 6.8753 1.25572 6.80601C1.04889 6.73672 0.877184 6.58936 0.777078 6.39524C0.676972 6.20112 0.656357 5.97554 0.719613 5.76644C0.702857 5.8168 0.719613 5.76476 0.719613 5.76476C0.749492 5.67235 0.784169 5.58157 0.823503 5.49279C0.890528 5.3333 0.98939 5.11337 1.12512 4.85315C1.39992 4.33271 1.83223 3.63935 2.46562 2.94599C3.75083 1.54416 5.85039 0.155762 9.0542 0.155762C12.2597 0.155762 14.3592 1.54416 15.6411 2.94599C16.3255 3.69796 16.8804 4.5586 17.2832 5.49279C17.3167 5.57169 17.3419 5.63549 17.3586 5.6825C17.3653 5.69593 17.3821 5.78323 17.3988 5.86717C17.4139 5.9444 17.4273 6.01826 17.4323 6.0317C17.4323 6.0317 17.5731 6.59075 16.8593 6.82747C16.6491 6.8978 16.4196 6.88182 16.2211 6.78302C16.0226 6.68422 15.8713 6.51065 15.8003 6.30031V6.29527L15.7886 6.26841C15.7044 6.05275 15.6082 5.842 15.5003 5.63717C15.2029 5.07404 14.8352 4.55109 14.4062 4.08089C13.384 2.96446 11.7134 1.8346 9.0542 1.8346C6.39497 1.8346 4.72437 2.96446 3.70223 4.08089C3.14884 4.68874 2.69881 5.38351 2.37011 6.13746C2.35252 6.18079 2.33576 6.22444 2.31984 6.26841L2.30811 6.29863Z" fill="#A4A4A4"/>
<path d="M5.70312 6.8711C5.70312 5.98059 6.0562 5.12655 6.68469 4.49687C7.31317 3.86718 8.16558 3.51343 9.05439 3.51343C9.9432 3.51343 10.7956 3.86718 11.4241 4.49687C12.0526 5.12655 12.4056 5.98059 12.4056 6.8711C12.4056 7.76162 12.0526 8.61565 11.4241 9.24534C10.7956 9.87503 9.9432 10.2288 9.05439 10.2288C8.16558 10.2288 7.31317 9.87503 6.68469 9.24534C6.0562 8.61565 5.70313 7.76162 5.70312 6.8711Z" fill="#A4A4A4"/>
</svg>