<svg width="19" height="19" viewBox="0 0 19 19" fill="none" xmlns="http://www.w3.org/2000/svg">
<path d="M8.71875 14.9688V15.75C8.71875 15.9572 8.63644 16.1559 8.48993 16.3024C8.34341 16.4489 8.1447 16.5312 7.9375 16.5312H6.375V17.3125C6.375 17.7269 6.21038 18.1243 5.91735 18.4174C5.62433 18.7104 5.2269 18.875 4.8125 18.875H1.6875C1.2731 18.875 0.875671 18.7104 0.582646 18.4174C0.28962 18.1243 0.125 17.7269 0.125 17.3125V15.2922C0.125088 14.8778 0.289767 14.4805 0.582812 14.1875L6.62969 8.14063C6.25892 6.88162 6.2939 5.53784 6.72967 4.29983C7.16544 3.06182 7.97989 1.99242 9.05753 1.24324C10.1352 0.494074 11.4213 0.103163 12.7336 0.125942C14.0458 0.14872 15.3176 0.584032 16.3686 1.37015C17.4196 2.15627 18.1965 3.2533 18.589 4.50569C18.9816 5.75808 18.9699 7.10226 18.5556 8.34764C18.1414 9.59302 17.3456 10.6764 16.2811 11.4441C15.2166 12.2119 13.9375 12.625 12.625 12.625H11.0609V14.1875C11.0609 14.3947 10.9786 14.5934 10.8321 14.7399C10.6856 14.8864 10.4869 14.9688 10.2797 14.9688H8.71719H8.71875ZM14.1875 6.375C14.6019 6.375 14.9993 6.21038 15.2924 5.91735C15.5854 5.62433 15.75 5.2269 15.75 4.8125C15.75 4.3981 15.5854 4.00067 15.2924 3.70765C14.9993 3.41462 14.6019 3.25 14.1875 3.25C13.7731 3.25 13.3757 3.41462 13.0826 3.70765C12.7896 4.00067 12.625 4.3981 12.625 4.8125C12.625 5.2269 12.7896 5.62433 13.0826 5.91735C13.3757 6.21038 13.7731 6.375 14.1875 6.375Z" fill="#4A4A4A"/>
</svg>
