<svg width="14" height="17" viewBox="0 0 14 17" fill="none" xmlns="http://www.w3.org/2000/svg">
<path d="M3.10938 4.6843V6.97596H2.14509C1.8041 6.97596 1.47707 7.11393 1.23595 7.35951C0.994834 7.6051 0.859375 7.93818 0.859375 8.28549L0.859375 14.8331C0.859375 15.1804 0.994834 15.5135 1.23595 15.7591C1.47707 16.0047 1.8041 16.1426 2.14509 16.1426H12.4308C12.7718 16.1426 13.0988 16.0047 13.3399 15.7591C13.5811 15.5135 13.7165 15.1804 13.7165 14.8331V8.28549C13.7165 7.93818 13.5811 7.6051 13.3399 7.35951C13.0988 7.11393 12.7718 6.97596 12.4308 6.97596H11.4665V4.6843C11.4665 3.55555 11.0263 2.47303 10.2426 1.67488C9.45901 0.876738 8.39617 0.428345 7.28795 0.428345C6.17972 0.428345 5.11688 0.876738 4.33325 1.67488C3.54962 2.47303 3.10938 3.55555 3.10938 4.6843ZM4.71652 6.97596V4.6843C4.71652 3.98968 4.98744 3.32352 5.46967 2.83235C5.95191 2.34118 6.60596 2.06525 7.28795 2.06525C7.96993 2.06525 8.62398 2.34118 9.10622 2.83235C9.58846 3.32352 9.85937 3.98968 9.85938 4.6843V6.97596H4.71652ZM6.00223 10.5772C6.00228 10.3503 6.06019 10.1273 6.17029 9.93013C6.28039 9.73292 6.43891 9.56823 6.6303 9.45219C6.82169 9.33615 7.0394 9.27274 7.26209 9.26818C7.48478 9.26362 7.70482 9.31806 7.90064 9.42616C8.09646 9.53427 8.26135 9.69234 8.37914 9.88488C8.49694 10.0774 8.56361 10.2978 8.57261 10.5245C8.58161 10.7512 8.53265 10.9763 8.4305 11.1779C8.32836 11.3796 8.17655 11.5507 7.98995 11.6745L7.9848 11.6778C7.9848 11.6778 8.11016 12.4504 8.25159 13.3605C8.25159 13.4906 8.20086 13.616 8.11056 13.708C8.02026 13.8 7.89779 13.8516 7.77009 13.8516H6.80452C6.67682 13.8516 6.55434 13.8 6.46405 13.708C6.37375 13.616 6.32302 13.4913 6.32302 13.3612L6.5898 11.6778C6.4093 11.5591 6.26085 11.3962 6.15799 11.2041C6.05513 11.012 6.00114 10.7967 6.00095 10.5778L6.00223 10.5772Z" fill="#39293D"/>
</svg>
