<svg width="14" height="18" viewBox="0 0 14 18" fill="none" xmlns="http://www.w3.org/2000/svg">
<path fill-rule="evenodd" clip-rule="evenodd" d="M0.25 17.4375V2.25C0.25 1.65326 0.487053 1.08097 0.90901 0.65901C1.33097 0.237053 1.90326 0 2.5 0L11.5 0C12.0967 0 12.669 0.237053 13.091 0.65901C13.5129 1.08097 13.75 1.65326 13.75 2.25V17.4375C13.7501 17.5352 13.7247 17.6312 13.6764 17.7161C13.6281 17.801 13.5585 17.8718 13.4745 17.9217C13.3905 17.9715 13.2949 17.9986 13.1973 18.0003C13.0996 18.002 13.0032 17.9783 12.9175 17.9314L7 14.7026L1.0825 17.9314C0.996808 17.9783 0.900384 18.002 0.802718 18.0003C0.705053 17.9986 0.609513 17.9715 0.525503 17.9217C0.441494 17.8718 0.37191 17.801 0.323603 17.7161C0.275295 17.6312 0.249929 17.5352 0.25 17.4375ZM7.5625 5.0625C7.5625 4.91332 7.50324 4.77024 7.39775 4.66475C7.29226 4.55926 7.14918 4.5 7 4.5C6.85082 4.5 6.70774 4.55926 6.60225 4.66475C6.49676 4.77024 6.4375 4.91332 6.4375 5.0625V6.75H4.75C4.60082 6.75 4.45774 6.80926 4.35225 6.91475C4.24676 7.02024 4.1875 7.16332 4.1875 7.3125C4.1875 7.46168 4.24676 7.60476 4.35225 7.71025C4.45774 7.81574 4.60082 7.875 4.75 7.875H6.4375V9.5625C6.4375 9.71168 6.49676 9.85476 6.60225 9.96025C6.70774 10.0657 6.85082 10.125 7 10.125C7.14918 10.125 7.29226 10.0657 7.39775 9.96025C7.50324 9.85476 7.5625 9.71168 7.5625 9.5625V7.875H9.25C9.39918 7.875 9.54226 7.81574 9.64775 7.71025C9.75324 7.60476 9.8125 7.46168 9.8125 7.3125C9.8125 7.16332 9.75324 7.02024 9.64775 6.91475C9.54226 6.80926 9.39918 6.75 9.25 6.75H7.5625V5.0625Z" fill="#FBB615"/>
</svg>
