<svg width="6" height="26" viewBox="0 0 6 26" fill="none" xmlns="http://www.w3.org/2000/svg">
<path d="M3 9.43215C1.34167 9.43215 0 11.0154 0 12.9724C0 14.9293 1.34167 16.5126 3 16.5126C4.65833 16.5126 6 14.9293 6 12.9724C6 11.0154 4.65833 9.43215 3 9.43215ZM6 4.31852C6 6.27547 4.65833 7.85873 3 7.85873C1.34167 7.85873 0 6.27547 0 4.31852C0 2.36158 1.34167 0.77832 3 0.77832C4.65833 0.77832 6 2.36158 6 4.31852ZM6 21.6262C6 23.5831 4.65833 25.1664 3 25.1664C1.34167 25.1664 0 23.5831 0 21.6262C0 19.6692 1.34167 18.086 3 18.086C4.65833 18.086 6 19.6692 6 21.6262Z" fill="white"/>
</svg>
