<svg width="10" height="10" viewBox="0 0 10 10" fill="black" xmlns="http://www.w3.org/2000/svg">
<path d="M5.707 5L7.1215 3.586C7.16796 3.53955 7.20481 3.48439 7.22995 3.4237C7.25509 3.363 7.26803 3.29795 7.26803 3.23225C7.26803 3.16655 7.25509 3.1015 7.22995 3.0408C7.20481 2.98011 7.16796 2.92496 7.1215 2.8785C7.07505 2.83205 7.0199 2.79519 6.9592 2.77005C6.8985 2.74491 6.83345 2.73197 6.76775 2.73197C6.70205 2.73197 6.637 2.74491 6.5763 2.77005C6.51561 2.79519 6.46046 2.83205 6.414 2.8785L5 4.293L3.586 2.8785C3.49218 2.78468 3.36493 2.73197 3.23225 2.73197C3.09957 2.73197 2.97232 2.78468 2.8785 2.8785C2.78468 2.97232 2.73197 3.09957 2.73197 3.23225C2.73197 3.29795 2.74491 3.363 2.77005 3.4237C2.79519 3.48439 2.83205 3.53955 2.8785 3.586L4.293 5L2.8785 6.414C2.78468 6.50782 2.73197 6.63507 2.73197 6.76775C2.73197 6.90043 2.78468 7.02768 2.8785 7.1215C2.97232 7.21532 3.09957 7.26803 3.23225 7.26803C3.36493 7.26803 3.49218 7.21532 3.586 7.1215L5 5.707L6.414 7.1215C6.50782 7.21532 6.63507 7.26803 6.76775 7.26803C6.90043 7.26803 7.02768 7.21532 7.1215 7.1215C7.21532 7.02768 7.26803 6.90043 7.26803 6.76775C7.26803 6.63507 7.21532 6.50782 7.1215 6.414L5.707 5ZM5 10C2.2385 10 0 7.7615 0 5C0 2.2385 2.2385 0 5 0C7.7615 0 10 2.2385 10 5C10 7.7615 7.7615 10 5 10Z" fill="white"/>
</svg>
