<svg width="32" height="32" viewBox="0 0 32 32" fill="none" xmlns="http://www.w3.org/2000/svg">
<circle cx="16" cy="16" r="16" fill="#00C199"/>
<path d="M15.1448 21.5538L20.5664 16.1323L13.8798 9.29377C12.2534 10.9709 8.85587 14.5058 8.27758 15.2287C7.69928 15.9516 8.1571 16.6142 8.4583 16.8552C9.60284 18.0599 12.1088 20.6864 12.9762 21.5538C13.8437 22.4213 14.7834 21.9153 15.1448 21.5538Z" fill="white"/>
<path d="M12.6148 8L13.8798 9.29377M13.8798 9.29377L20.5664 16.1323L15.1448 21.5538C14.7834 21.9153 13.8437 22.4213 12.9762 21.5538C12.1088 20.6864 9.60284 18.0599 8.4583 16.8552C8.1571 16.6142 7.69928 15.9516 8.27758 15.2287C8.85587 14.5058 12.2534 10.9709 13.8798 9.29377Z" stroke="white"/>
<path d="M22.7191 19.7392L22.5545 19.5952L22.3898 19.7392C22.1296 19.9669 21.751 20.3848 21.4359 20.9157C21.1211 21.4462 20.8587 22.1081 20.8587 22.8188C20.8587 23.5392 21.1295 24.0194 21.4935 24.3143C21.847 24.6006 22.267 24.6953 22.5545 24.6953C22.8419 24.6953 23.2619 24.6006 23.6154 24.3143C23.9795 24.0194 24.2502 23.5392 24.2502 22.8188C24.2502 22.1081 23.9878 21.4462 23.673 20.9157C23.3579 20.3848 22.9793 19.9669 22.7191 19.7392Z" fill="white" stroke="white" stroke-width="0.5"/>
</svg>
