<svg width="34" height="33" viewBox="0 0 34 33" fill="none" xmlns="http://www.w3.org/2000/svg">
<path d="M8.87222 1.72577C10.3044 0.666975 12.0527 0.0959093 13.8492 0.100121C14.3532 0.100121 14.7543 0.356371 14.9874 0.532671C15.2478 0.733571 15.4914 0.989821 15.7098 1.24607C15.8647 1.42968 15.9493 1.66014 15.9492 1.89797V9.32512H13.6707C13.423 8.64123 12.9356 8.06483 12.2947 7.6978C11.6538 7.33077 10.9006 7.19674 10.1682 7.31941C9.43583 7.44207 8.77146 7.81353 8.29251 8.36812C7.81356 8.92272 7.55087 9.62474 7.55087 10.3501C7.55087 11.0755 7.81356 11.7775 8.29251 12.3321C8.77146 12.8867 9.43583 13.2582 10.1682 13.3808C10.9006 13.5035 11.6538 13.3695 12.2947 13.0024C12.9356 12.6354 13.423 12.059 13.6707 11.3751H15.9492V30.6759C15.9493 30.8276 15.9149 30.9775 15.8484 31.1147C15.782 31.2519 15.6851 31.373 15.5649 31.4692C14.5947 32.2441 13.2969 32.9001 11.7492 32.9001C9.25862 32.9001 7.40432 31.6742 6.20522 30.2085C5.34371 29.1641 4.75365 27.9319 4.48532 26.6169C3.66943 26.4045 2.91294 26.0157 2.27192 25.4791C1.11272 24.5095 0.199219 22.9371 0.199219 20.6001C0.199219 19.4583 0.276919 18.4271 0.451218 17.5251H7.02422C8.35982 17.5251 9.46022 18.4989 9.62822 19.7576C8.92986 20.0043 8.34325 20.484 7.97199 21.1119C7.60072 21.7398 7.46867 22.4756 7.59915 23.1893C7.72963 23.903 8.11426 24.5488 8.6851 25.0126C9.25595 25.4764 9.97631 25.7283 10.719 25.724C11.4617 25.7197 12.1789 25.4593 12.744 24.9889C13.3091 24.5185 13.6858 23.8683 13.8076 23.1531C13.9293 22.4379 13.7882 21.7037 13.4093 21.0802C13.0304 20.4566 12.438 19.9838 11.7366 19.7453C11.6481 18.5844 11.1132 17.4991 10.2392 16.7071C9.36518 15.9151 8.21673 15.475 7.02422 15.4751H1.12532C1.44662 14.8642 1.87712 14.3476 2.43782 13.9807C2.57965 13.889 2.72849 13.8081 2.88302 13.7388C2.28662 12.0332 2.44202 10.0365 3.01742 8.46822C3.38492 7.45962 3.96872 6.50637 4.77092 5.87087C5.30012 5.45062 5.93012 5.17387 6.61892 5.12057C6.92132 3.72042 7.77182 2.56217 8.87432 1.72577H8.87222ZM18.0492 25.7251H19.6242C20.8774 25.7251 22.0792 25.2392 22.9653 24.3742C23.8514 23.5091 24.3492 22.3359 24.3492 21.1126V17.3509C25.0498 17.1091 25.6402 16.6333 26.0162 16.0076C26.3922 15.382 26.5295 14.6467 26.4039 13.9317C26.2782 13.2168 25.8977 12.5683 25.3296 12.1007C24.7614 11.6332 24.0423 11.3767 23.2992 11.3767C22.5561 11.3767 21.837 11.6332 21.2689 12.1007C20.7008 12.5683 20.3202 13.2168 20.1946 13.9317C20.0689 14.6467 20.2062 15.382 20.5822 16.0076C20.9582 16.6333 21.5486 17.1091 22.2492 17.3509V21.1126C22.2492 22.5271 21.0732 23.6751 19.6242 23.6751H18.0492V1.89797C18.0491 1.66014 18.1338 1.42968 18.2886 1.24607C18.5049 0.989821 18.7506 0.733571 19.011 0.532671C19.242 0.356371 19.6431 0.100121 20.1492 0.100121C21.9457 0.0959093 23.6941 0.666975 25.1262 1.72577C26.2287 2.56217 27.0792 3.72042 27.3795 5.12057C28.0683 5.17182 28.6983 5.45062 29.2275 5.87087C30.0297 6.50637 30.6135 7.45962 30.981 8.46822C31.5564 10.0365 31.7118 12.0352 31.1154 13.7367C31.2666 13.8064 31.4157 13.8884 31.5606 13.9827C32.1381 14.3579 32.577 14.895 32.9004 15.5284C33.5367 16.7687 33.7992 18.4989 33.7992 20.6001C33.7992 22.9392 32.8857 24.5095 31.7265 25.4791C31.0855 26.0157 30.329 26.4045 29.5131 26.6169C29.3031 27.7608 28.7151 29.0851 27.7932 30.2085C26.5962 31.6742 24.7398 32.9001 22.2492 32.9001C20.7036 32.9001 19.4037 32.2441 18.4356 31.4692C18.315 31.3732 18.2178 31.2522 18.1509 31.115C18.0841 30.9778 18.0494 30.8278 18.0492 30.6759V25.7251ZM10.6992 9.32512C10.4207 9.32512 10.1537 9.43311 9.95676 9.62534C9.75984 9.81756 9.64922 10.0783 9.64922 10.3501C9.64922 10.622 9.75984 10.8827 9.95676 11.0749C10.1537 11.2671 10.4207 11.3751 10.6992 11.3751C10.9777 11.3751 11.2448 11.2671 11.4417 11.0749C11.6386 10.8827 11.7492 10.622 11.7492 10.3501C11.7492 10.0783 11.6386 9.81756 11.4417 9.62534C11.2448 9.43311 10.9777 9.32512 10.6992 9.32512ZM10.6992 21.6251C10.4207 21.6251 10.1537 21.7331 9.95676 21.9253C9.75984 22.1176 9.64922 22.3783 9.64922 22.6501C9.64922 22.922 9.75984 23.1827 9.95676 23.3749C10.1537 23.5671 10.4207 23.6751 10.6992 23.6751C10.9777 23.6751 11.2448 23.5671 11.4417 23.3749C11.6386 23.1827 11.7492 22.922 11.7492 22.6501C11.7492 22.3783 11.6386 22.1176 11.4417 21.9253C11.2448 21.7331 10.9777 21.6251 10.6992 21.6251ZM23.2992 15.4751C23.5777 15.4751 23.8448 15.3671 24.0417 15.1749C24.2386 14.9827 24.3492 14.722 24.3492 14.4501C24.3492 14.1783 24.2386 13.9176 24.0417 13.7253C23.8448 13.5331 23.5777 13.4251 23.2992 13.4251C23.0207 13.4251 22.7537 13.5331 22.5568 13.7253C22.3598 13.9176 22.2492 14.1783 22.2492 14.4501C22.2492 14.722 22.3598 14.9827 22.5568 15.1749C22.7537 15.3671 23.0207 15.4751 23.2992 15.4751Z" fill="#7ECDC7"/>
</svg>
