<svg width="37" height="34" viewBox="0 0 37 34" fill="none" xmlns="http://www.w3.org/2000/svg">
<path d="M16.1241 33.7828L12.5978 32.633C12.2278 32.5161 12.0197 32.0809 12.1238 31.6651L20.0146 1.12132C20.1186 0.705585 20.5059 0.471732 20.8759 0.588659L24.4022 1.73844C24.7722 1.85536 24.9803 2.29059 24.8762 2.70633L16.9854 33.2501C16.8756 33.6659 16.4941 33.9062 16.1241 33.7828ZM9.53398 26.4944L12.0486 23.4803C12.3145 23.162 12.2972 22.6553 12.0024 22.363L6.76498 17.1857L12.0024 12.0085C12.2972 11.7162 12.3203 11.2095 12.0486 10.8912L9.53398 7.87708C9.27385 7.56527 8.83451 7.54578 8.55125 7.8446L0.221116 16.6141C-0.0737052 16.9194 -0.0737052 17.4456 0.221116 17.7509L8.55125 26.5269C8.83451 26.8257 9.27385 26.8127 9.53398 26.4944ZM28.4488 26.5333L36.7789 17.7574C37.0737 17.4521 37.0737 16.9259 36.7789 16.6206L28.4488 7.8381C28.1713 7.54578 27.7319 7.55878 27.466 7.87058L24.9514 10.8847C24.6855 11.203 24.7028 11.7097 24.9976 12.002L30.235 17.1857L24.9976 22.363C24.7028 22.6553 24.6797 23.162 24.9514 23.4803L27.466 26.4944C27.7262 26.8127 28.1655 26.8257 28.4488 26.5333Z" fill="#E68868"/>
</svg>
