<svg width="24" height="15" viewBox="0 0 24 15" fill="none" xmlns="http://www.w3.org/2000/svg">
<path d="M2.60591 9.09333C2.50146 9.37848 2.28994 9.61167 2.01629 9.74335C1.74265 9.87503 1.42844 9.89482 1.14044 9.79851C0.85243 9.70221 0.613327 9.4974 0.473928 9.2276C0.334529 8.9578 0.305823 8.64429 0.393908 8.35366C0.370574 8.42366 0.393908 8.35133 0.393908 8.35133C0.435513 8.2229 0.483802 8.09672 0.538575 7.97333C0.631908 7.75166 0.769574 7.446 0.958574 7.08433C1.34124 6.361 1.94324 5.39733 2.82524 4.43366C4.61491 2.48533 7.53857 0.555664 11.9999 0.555664C16.4636 0.555664 19.3872 2.48533 21.1722 4.43366C22.1252 5.47878 22.898 6.67495 23.4589 7.97333C23.5056 8.083 23.5406 8.17166 23.5639 8.237C23.5732 8.25566 23.5966 8.377 23.6199 8.49366C23.6409 8.601 23.6596 8.70366 23.6666 8.72233C23.6666 8.72233 23.8626 9.49933 22.8686 9.82833C22.5758 9.92609 22.2563 9.90387 21.9799 9.76655C21.7035 9.62924 21.4928 9.388 21.3939 9.09566V9.08866L21.3776 9.05133C21.2604 8.75159 21.1264 8.45868 20.9762 8.174C20.5621 7.39133 20.0501 6.66451 19.4526 6.011C18.0292 4.45933 15.7029 2.889 11.9999 2.889C8.29691 2.889 5.97057 4.45933 4.54724 6.011C3.77663 6.85582 3.14996 7.82145 2.69224 8.86933C2.66775 8.92954 2.64441 8.99022 2.62224 9.05133L2.60591 9.09333Z" fill="#FBB615"/>
<path d="M7.33203 9.88884C7.33203 8.65116 7.8237 7.46417 8.69887 6.589C9.57404 5.71383 10.761 5.22217 11.9987 5.22217C13.2364 5.22217 14.4234 5.71383 15.2985 6.589C16.1737 7.46417 16.6654 8.65116 16.6654 9.88884C16.6654 11.1265 16.1737 12.3135 15.2985 13.1887C14.4234 14.0638 13.2364 14.5555 11.9987 14.5555C10.761 14.5555 9.57404 14.0638 8.69887 13.1887C7.8237 12.3135 7.33203 11.1265 7.33203 9.88884Z" fill="#FBB615"/>
</svg>
