<svg width="22" height="25" viewBox="0 0 22 25" fill="none" xmlns="http://www.w3.org/2000/svg">
<path d="M0 8.11551V1.40358C0 0.683667 0.522461 0.104492 1.17188 0.104492H7.22656C7.54883 0.104492 7.8125 0.396786 7.8125 0.754034V2.91917C7.8125 3.27642 7.54883 3.56872 7.22656 3.56872H3.125V8.11551C3.125 8.47276 2.86133 8.76505 2.53906 8.76505H0.585938C0.263672 8.76505 0 8.47276 0 8.11551ZM14.0625 0.754034V2.91917C14.0625 3.27642 14.3262 3.56872 14.6484 3.56872H18.75V8.11551C18.75 8.47276 19.0137 8.76505 19.3359 8.76505H21.2891C21.6113 8.76505 21.875 8.47276 21.875 8.11551V1.40358C21.875 0.683667 21.3525 0.104492 20.7031 0.104492H14.6484C14.3262 0.104492 14.0625 0.396786 14.0625 0.754034ZM21.2891 15.6935H19.3359C19.0137 15.6935 18.75 15.9858 18.75 16.343V20.8898H14.6484C14.3262 20.8898 14.0625 21.1821 14.0625 21.5394V23.7045C14.0625 24.0618 14.3262 24.3541 14.6484 24.3541H20.7031C21.3525 24.3541 21.875 23.7749 21.875 23.055V16.343C21.875 15.9858 21.6113 15.6935 21.2891 15.6935ZM7.8125 23.7045V21.5394C7.8125 21.1821 7.54883 20.8898 7.22656 20.8898H3.125V16.343C3.125 15.9858 2.86133 15.6935 2.53906 15.6935H0.585938C0.263672 15.6935 0 15.9858 0 16.343V23.055C0 23.7749 0.522461 24.3541 1.17188 24.3541H7.22656C7.54883 24.3541 7.8125 24.0618 7.8125 23.7045Z" fill="#58475C"/>
</svg>
