<svg width="23" height="26" viewBox="0 0 23 26" fill="none" xmlns="http://www.w3.org/2000/svg">
<path fill-rule="evenodd" clip-rule="evenodd" d="M12.65 1.74798C12.65 1.40987 12.5288 1.08561 12.3132 0.846535C12.0975 0.607457 11.805 0.473145 11.5 0.473145C11.195 0.473145 10.9025 0.607457 10.6868 0.846535C10.4712 1.08561 10.35 1.40987 10.35 1.74798V3.02281C10.35 3.36092 10.4712 3.68518 10.6868 3.92426C10.9025 4.16334 11.195 4.29765 11.5 4.29765C11.805 4.29765 12.0975 4.16334 12.3132 3.92426C12.5288 3.68518 12.65 3.36092 12.65 3.02281V1.74798ZM4.83805 4.03376C4.62116 3.80154 4.33066 3.67304 4.02914 3.67595C3.72761 3.67885 3.43918 3.81292 3.22596 4.04929C3.01274 4.28565 2.89179 4.6054 2.88917 4.93966C2.88655 5.27391 3.00247 5.59594 3.21195 5.83638L4.36195 7.11121C4.57884 7.34343 4.86934 7.47193 5.17086 7.46903C5.47239 7.46612 5.76082 7.33205 5.97404 7.09568C6.18726 6.85932 6.30821 6.53957 6.31083 6.20532C6.31345 5.87106 6.19753 5.54903 5.98805 5.30859L4.83805 4.03376ZM19.788 5.83638C19.9975 5.59594 20.1134 5.27391 20.1108 4.93966C20.1082 4.6054 19.9873 4.28565 19.774 4.04929C19.5608 3.81292 19.2724 3.67885 18.9709 3.67595C18.6693 3.67304 18.3788 3.80154 18.1619 4.03376L17.0119 5.30859C16.8025 5.54903 16.6866 5.87106 16.6892 6.20532C16.6918 6.53957 16.8127 6.85932 17.026 7.09568C17.2392 7.33205 17.5276 7.46612 17.8291 7.46903C18.1307 7.47193 18.4212 7.34343 18.6381 7.11121L19.788 5.83638ZM11.5 5.57249C10.0177 5.57238 8.57475 6.10146 7.38484 7.08137C6.19494 8.06129 5.32134 9.43994 4.89338 11.0132C4.46543 12.5864 4.50589 14.2706 5.00876 15.8164C5.51163 17.3622 6.45019 18.6873 7.68545 19.5957H15.3146C16.5498 18.6873 17.4884 17.3622 17.9912 15.8164C18.4941 14.2706 18.5346 12.5864 18.1066 11.0132C17.6787 9.43994 16.8051 8.06129 15.6152 7.08137C14.4253 6.10146 12.9823 5.57238 11.5 5.57249ZM14.95 20.8705H8.05V22.1453C8.05 23.1597 8.41348 24.1324 9.06048 24.8497C9.70748 25.5669 10.585 25.9698 11.5 25.9698C12.415 25.9698 13.2925 25.5669 13.9395 24.8497C14.5865 24.1324 14.95 23.1597 14.95 22.1453V20.8705ZM1.15 11.9467C0.845001 11.9467 0.552494 12.081 0.336827 12.3201C0.12116 12.5591 0 12.8834 0 13.2215C0 13.5596 0.12116 13.8839 0.336827 14.1229C0.552494 14.362 0.845001 14.4963 1.15 14.4963H2.3C2.605 14.4963 2.89751 14.362 3.11317 14.1229C3.32884 13.8839 3.45 13.5596 3.45 13.2215C3.45 12.8834 3.32884 12.5591 3.11317 12.3201C2.89751 12.081 2.605 11.9467 2.3 11.9467H1.15ZM20.7 11.9467C20.395 11.9467 20.1025 12.081 19.8868 12.3201C19.6712 12.5591 19.55 12.8834 19.55 13.2215C19.55 13.5596 19.6712 13.8839 19.8868 14.1229C20.1025 14.362 20.395 14.4963 20.7 14.4963H21.85C22.155 14.4963 22.4475 14.362 22.6632 14.1229C22.8788 13.8839 23 13.5596 23 13.2215C23 12.8834 22.8788 12.5591 22.6632 12.3201C22.4475 12.081 22.155 11.9467 21.85 11.9467H20.7Z" fill="#FBB615"/>
</svg>
