<svg width="25" height="25" viewBox="0 0 25 25" fill="none" xmlns="http://www.w3.org/2000/svg">
<path d="M18.2285 4.6875C16.1973 4.6875 14.0098 5.10417 12.4993 6.25C10.9889 5.10417 8.80143 4.6875 6.77018 4.6875C5.25977 4.6875 3.6556 4.91667 2.31185 5.51042C1.55143 5.85417 1.04102 6.59375 1.04102 7.4375V19.1875C1.04102 20.5417 2.31185 21.5417 3.62435 21.2083C4.64518 20.9479 5.72852 20.8333 6.77018 20.8333C8.39518 20.8333 10.1243 21.1042 11.5202 21.7917C12.1452 22.1042 12.8535 22.1042 13.4681 21.7917C14.8639 21.0938 16.5931 20.8333 18.2181 20.8333C19.2598 20.8333 20.3431 20.9479 21.3639 21.2083C22.6764 21.5521 23.9473 20.5521 23.9473 19.1875V7.4375C23.9473 6.59375 23.4368 5.85417 22.6764 5.51042C21.3431 4.91667 19.7389 4.6875 18.2285 4.6875V4.6875ZM21.8743 17.9479C21.8743 18.6042 21.2702 19.0833 20.6243 18.9688C19.8431 18.8229 19.0306 18.7604 18.2285 18.7604C16.4577 18.7604 13.9056 19.4375 12.4993 20.3229V8.33333C13.9056 7.44792 16.4577 6.77083 18.2285 6.77083C19.1868 6.77083 20.1348 6.86458 21.041 7.0625C21.5202 7.16667 21.8743 7.59375 21.8743 8.08333V17.9479Z" fill="#E68868"/>
<path d="M14.5618 11.4687C14.2285 11.4687 13.9264 11.2603 13.8222 10.927C13.6868 10.5208 13.916 10.0728 14.3222 9.94785C15.9264 9.42701 17.9993 9.26035 19.9056 9.4791C20.3326 9.53118 20.6451 9.9166 20.5931 10.3437C20.541 10.7708 20.1556 11.0833 19.7285 11.0312C18.041 10.8333 16.1972 10.9895 14.8014 11.4374C14.7181 11.4478 14.6347 11.4687 14.5618 11.4687V11.4687ZM14.5618 14.2395C14.2285 14.2395 13.9264 14.0312 13.8222 13.6978C13.6868 13.2916 13.916 12.8437 14.3222 12.7187C15.916 12.1978 17.9993 12.0312 19.9056 12.2499C20.3326 12.302 20.6451 12.6874 20.5931 13.1145C20.541 13.5416 20.1556 13.8541 19.7285 13.802C18.041 13.6041 16.1972 13.7603 14.8014 14.2083C14.7231 14.2282 14.6426 14.2387 14.5618 14.2395V14.2395ZM14.5618 17.0103C14.2285 17.0103 13.9264 16.802 13.8222 16.4687C13.6868 16.0624 13.916 15.6145 14.3222 15.4895C15.916 14.9687 17.9993 14.802 19.9056 15.0208C20.3326 15.0728 20.6451 15.4583 20.5931 15.8853C20.541 16.3124 20.1556 16.6145 19.7285 16.5728C18.041 16.3749 16.1972 16.5312 14.8014 16.9791C14.7231 16.9991 14.6426 17.0095 14.5618 17.0103V17.0103Z" fill="#E68868"/>
</svg>
