<svg width="27" height="26" viewBox="0 0 27 26" fill="none" xmlns="http://www.w3.org/2000/svg">
<path fill-rule="evenodd" clip-rule="evenodd" d="M23.0938 13.0001C23.0945 15.1908 22.343 17.3154 20.965 19.0184C19.587 20.7214 17.6661 21.8997 15.5234 22.3561C13.3808 22.8125 11.1464 22.5193 9.19403 21.5257C7.24162 20.5321 5.68958 18.8982 4.7975 16.8974L1.84163 18.098C3.0134 20.7828 5.07382 22.9824 7.67649 24.3269C10.2792 25.6713 13.2654 26.0787 16.1331 25.4805C19.0007 24.8824 21.5751 23.3151 23.4232 21.0422C25.2713 18.7694 26.2806 15.9295 26.2812 13.0001C26.2814 10.339 25.4489 7.74462 23.9004 5.58045C22.352 3.41629 20.1652 1.79084 17.6466 0.931928C15.1279 0.0730128 12.4037 0.0236748 9.85558 0.790829C7.30749 1.55798 5.06329 3.10318 3.4375 5.20986V1.31261H0.25V9.81261L1.84375 11.4064H9.28125V8.21886H5.248C6.3001 6.39491 7.9248 4.96922 9.86998 4.16302C11.8152 3.35682 13.9721 3.21519 16.006 3.76011C18.0399 4.30504 19.837 5.50604 21.1186 7.17676C22.4002 8.84747 23.0945 10.8945 23.0938 13.0001Z" fill="#E68868"/>
</svg>
