<svg width="39" height="47" viewBox="0 0 39 47" fill="none" xmlns="http://www.w3.org/2000/svg">
<path d="M38.5019 28.7951L35.0029 26.5409C35.356 24.415 35.356 22.2341 35.0029 20.1082L38.5019 17.854C38.9043 17.5974 39.085 17.0659 38.9536 16.5711C38.0419 13.309 36.4895 10.3583 34.4608 7.90255C34.1486 7.52685 33.6394 7.43522 33.2451 7.69179L29.7461 9.94599C28.2759 8.53482 26.5839 7.44438 24.7523 6.72963V2.23041C24.7523 1.71726 24.4319 1.26825 23.9802 1.15829C20.9658 0.40689 17.8775 0.443543 15.0109 1.15829C14.5592 1.26825 14.2388 1.71726 14.2388 2.23041V6.7388C12.4154 7.46271 10.7234 8.55315 9.24494 9.95515L5.75415 7.70095C5.35168 7.44438 4.85065 7.52685 4.53853 7.91171C2.50976 10.3583 0.95739 13.309 0.0456776 16.5803C-0.093954 17.0751 0.0949593 17.6066 0.497427 17.8632L3.99643 20.1174C3.64324 22.2433 3.64324 24.4242 3.99643 26.5501L0.497427 28.8043C0.0949593 29.0608 -0.0857404 29.5923 0.0456776 30.0871C0.95739 33.3493 2.50976 36.2999 4.53853 38.7557C4.85065 39.1314 5.35989 39.223 5.75415 38.9665L9.25315 36.7123C10.7234 38.1234 12.4154 39.2139 14.247 39.9286V44.437C14.247 44.9502 14.5674 45.3992 15.0191 45.5091C18.0335 46.2605 21.1218 46.2239 23.9884 45.5091C24.4401 45.3992 24.7605 44.9502 24.7605 44.437V39.9286C26.5839 39.2047 28.2759 38.1143 29.7544 36.7123L33.2534 38.9665C33.6558 39.223 34.1569 39.1406 34.469 38.7557C36.4977 36.3091 38.0501 33.3585 38.9618 30.0871C39.085 29.5831 38.9043 29.0517 38.5019 28.7951ZM19.4955 30.6553C15.8733 30.6553 12.9246 27.3656 12.9246 23.3245C12.9246 19.2835 15.8733 15.9938 19.4955 15.9938C23.1177 15.9938 26.0664 19.2835 26.0664 23.3245C26.0664 27.3656 23.1177 30.6553 19.4955 30.6553Z" fill="#FBB615"/>
</svg>
