<svg width="25" height="24" viewBox="0 0 25 24" fill="none" xmlns="http://www.w3.org/2000/svg">
<path d="M9.3329 3.07958L5.47135 7.35934H1.04167C0.466146 7.35934 0 7.87608 0 8.51408V15.4425C0 16.08 0.466146 16.5973 1.04167 16.5973H5.47135L9.3329 20.877C9.98524 21.6002 11.1111 21.0921 11.1111 20.0605V3.89607C11.1111 2.86354 9.98438 2.35738 9.3329 3.07958ZM19.4596 0.621901C18.9748 0.269223 18.3233 0.417896 18.0052 0.956294C17.6866 1.49373 17.822 2.21593 18.3069 2.5686C21.1832 4.66109 22.8997 8.17872 22.8997 11.9788C22.8997 15.7788 21.1832 19.2965 18.3069 21.389C17.822 21.7412 17.6866 22.4638 18.0052 23.0008C18.3108 23.5161 18.957 23.7013 19.4596 23.3352C22.9284 20.8111 25 16.565 25 11.9783C25 7.39157 22.9284 3.14597 19.4596 0.621901ZM20.8333 11.9783C20.8333 8.92161 19.4418 6.11125 17.1107 4.46094C16.625 4.1174 15.9809 4.27714 15.6732 4.81987C15.3654 5.3626 15.5091 6.08094 15.9948 6.42496C17.7201 7.64658 18.75 9.72223 18.75 11.9783C18.75 14.2344 17.7201 16.31 15.9948 17.5316C15.5091 17.8752 15.3654 18.5935 15.6732 19.1367C15.9557 19.6352 16.5898 19.8652 17.1107 19.4957C19.4418 17.8454 20.8333 15.0355 20.8333 11.9783ZM14.6801 8.27976C14.1775 7.9752 13.5434 8.17584 13.2648 8.73444C12.9874 9.29305 13.171 9.99503 13.6749 10.3034C14.2352 10.6446 14.5833 11.2869 14.5833 11.9783C14.5833 12.6702 14.2352 13.312 13.6753 13.6532C13.1714 13.9616 12.9878 14.6636 13.2652 15.2222C13.5443 15.7832 14.1788 15.9824 14.6806 15.6768C15.9058 14.9287 16.6671 13.5117 16.6671 11.9778C16.6671 10.4439 15.9058 9.02746 14.6801 8.27976Z" fill="#7ECDC7"/>
</svg>
