<svg width="25" height="29" viewBox="0 0 25 29" fill="none" xmlns="http://www.w3.org/2000/svg">
<path d="M24.7916 6.26032C24.6822 5.77154 24.1305 5.60591 23.8092 5.96208L20.1783 9.98707L16.8639 9.37488L16.3116 5.70063L19.9425 1.67564C20.2657 1.31731 20.11 0.706736 19.6661 0.584405C17.3527 -0.0510637 14.8053 0.633662 12.9972 2.6375C11.0616 4.78316 10.5289 7.89338 11.3346 10.6052L0.915161 22.1557C-0.305054 23.5084 -0.305054 25.7017 0.915161 27.0543C2.13538 28.407 4.11389 28.407 5.33411 27.0543L15.7447 15.5136C18.192 16.4181 20.9923 15.821 22.9405 13.6613C24.7506 11.6548 25.3673 8.82656 24.7916 6.26032ZM3.12512 25.9036C2.47815 25.9036 1.95325 25.3217 1.95325 24.6045C1.95325 23.8867 2.47815 23.3054 3.12512 23.3054C3.77209 23.3054 4.297 23.8867 4.297 24.6045C4.297 25.3217 3.77209 25.9036 3.12512 25.9036Z" fill="#FBB615"/>
</svg>
