<svg width="24" height="24" viewBox="0 0 24 24" fill="none" xmlns="http://www.w3.org/2000/svg">
<path d="M9.5 12C11.706 12 13.5 10.206 13.5 8C13.5 5.794 11.706 4 9.5 4C7.294 4 5.5 5.794 5.5 8C5.5 10.206 7.294 12 9.5 12ZM11 13H8C4.691 13 2 15.691 2 19V20H17V19C17 15.691 14.309 13 11 13Z" fill="#7ECDC7"/>
<path d="M16.6046 11.048C17.2136 10.0101 17.4766 8.80528 17.3556 7.60797C17.1766 5.82397 16.1806 4.24697 14.5526 3.16797L13.4476 4.83397C14.5666 5.57597 15.2476 6.63297 15.3656 7.80797C15.42 8.35407 15.352 8.90543 15.1666 9.42195C14.9811 9.93847 14.6829 10.4072 14.2936 10.794L13.1016 11.986L14.7196 12.461C18.9516 13.701 19.0006 17.957 19.0006 18H21.0006C21.0006 16.211 20.0446 12.715 16.6046 11.048Z" fill="#7ECDC7"/>
</svg>
