<svg width="40" height="39" viewBox="0 0 40 39" fill="none" xmlns="http://www.w3.org/2000/svg">
<path d="M19 24.375L24.62 19.5L19 14.625V24.375Z" fill="#58475C"/>
<path d="M20 0.75C16.0444 0.75 12.1776 1.84967 8.8886 3.90994C5.59962 5.97022 3.03617 8.89857 1.52242 12.3247C0.00866568 15.7508 -0.387401 19.5208 0.384303 23.1579C1.15601 26.7951 3.06082 30.136 5.85787 32.7583C8.65492 35.3805 12.2186 37.1663 16.0982 37.8897C19.9778 38.6132 23.9992 38.2419 27.6537 36.8227C31.3082 35.4036 34.4318 33.0004 36.6294 29.9169C38.827 26.8335 40 23.2084 40 19.5C40 17.0377 39.4827 14.5995 38.4776 12.3247C37.4725 10.0498 35.9993 7.98285 34.1421 6.24175C32.285 4.50065 30.0802 3.11953 27.6537 2.17726C25.2272 1.23498 22.6264 0.75 20 0.75ZM28 21.7125L20.72 28.0312C20.084 28.571 19.2578 28.8714 18.4 28.875C17.924 28.874 17.4536 28.7781 17.02 28.5938C16.4301 28.37 15.9248 27.9865 15.5685 27.4922C15.2123 26.9979 15.0213 26.4153 15.02 25.8188V13.1813C15.0213 12.5847 15.2123 12.0021 15.5685 11.5078C15.9248 11.0135 16.4301 10.63 17.02 10.4062C17.6277 10.1497 18.3023 10.0663 18.9602 10.1663C19.618 10.2663 20.23 10.5454 20.72 10.9688L28 17.2875C28.3274 17.5686 28.5888 17.9104 28.7677 18.2913C28.9465 18.6722 29.0389 19.0838 29.0389 19.5C29.0389 19.9162 28.9465 20.3278 28.7677 20.7087C28.5888 21.0896 28.3274 21.4314 28 21.7125Z" fill="#58475C"/>
</svg>
